<?xml version="1.0" encoding="UTF-8" standalone="no"?>
<!DOCTYPE svg PUBLIC "-//W3C//DTD SVG 1.1//EN" "http://www.w3.org/Graphics/SVG/1.1/DTD/svg11.dtd">
<svg width="100%" height="100%" viewBox="0 0 200 200" version="1.1" xmlns="http://www.w3.org/2000/svg" xmlns:xlink="http://www.w3.org/1999/xlink" xml:space="preserve" xmlns:serif="http://www.serif.com/" style="fill-rule:evenodd;clip-rule:evenodd;stroke-linejoin:round;stroke-miterlimit:2;">
    <g transform="matrix(4.16667,0,0,4.16667,0,0)">
        <g id="surface1">
            <g transform="matrix(1.0907,0,0,1.0907,-2.09512,-3.26338)">
                <path d="M44.082,29.79C43.898,28.96 43.148,27.992 41.632,27.992C41.32,27.992 40.98,28.032 40.598,28.113C39.887,28.258 39.285,28.328 38.754,28.355C42.887,21.312 45.57,11.535 42.914,8.141C39.41,3.668 34.7,3 32.204,3L31.969,3C31.039,3.016 30.074,3.129 29.105,3.34L25.52,4.113C25.023,4.047 24.522,4.009 24.02,4L23.82,4C22.227,4 20.773,4.336 19.48,4.973L18.227,4.48C16.507,3.8 13.922,2.992 11.359,2.992C11.215,2.992 11.074,2.996 10.929,3.004C8.406,3.094 6.242,4.051 4.664,5.77C2.695,7.914 1.801,11.055 2.004,15.102C2.012,15.309 4.46,36 11.398,36L11.488,36C12.391,35.977 13.25,35.613 14.051,34.922C14.664,35.382 15.457,35.652 16.195,35.762C16.684,35.879 17.562,36.039 18.613,36.039C19.898,36.039 21.059,35.777 22.055,35.301C22.055,36.184 22.051,37.297 22.039,38.719L22.039,38.797L22.043,38.871C22.141,40.289 22.387,41.566 22.753,42.571C23.805,45.43 25.621,47.004 27.863,47.004C27.957,47.004 28.055,47.004 28.148,46.996C29.996,46.883 31.868,45.844 33.152,44.223C34.547,42.469 34.867,40.617 34.992,39.199L35,39.109L35,34.945L35.102,34.953L35.539,34.993L35.582,34.996L35.622,34.996C35.746,35.004 35.875,35.008 36.004,35.008C37.512,35.008 39.367,34.613 40.621,34.031C41.821,33.477 44.559,31.949 44.082,29.789L44.082,29.79Z" style="fill:white;fill-rule:nonzero;"/>
            </g>
            <g transform="matrix(1.0907,0,0,1.0907,-2.09512,-3.26338)">
                <path d="M33,34C33,33.797 33.012,33.625 33.02,33.434L33,33L33.031,32.977C33.18,30.305 33.918,29.273 34.707,28.687C34.597,28.535 34.469,28.371 34.352,28.215C34.02,27.777 33.602,27.235 33.16,26.539L33.078,26.383C33.012,26.219 32.848,25.933 32.641,25.563C31.461,23.422 28.996,18.969 30.684,16.156C31.422,14.926 32.804,14.215 34.804,14.039C33.984,11.719 30.926,6.113 23.984,6L23.98,6C17.937,5.902 15.953,11.39 15.309,14.672C16.195,14.297 17.215,14.066 18.145,14.066L18.188,14.066C20.477,14.082 22.051,15.305 22.508,17.422C22.844,18.972 23.004,20.328 23,21.574C22.992,24.293 22.441,25.723 21.96,26.984L21.805,27.391C21.68,27.727 21.551,28.035 21.425,28.328C21.301,28.628 21.187,28.891 21.109,29.133C21.594,29.243 21.973,29.395 22.234,29.512L22.383,29.578C22.43,29.598 22.477,29.621 22.52,29.645C23.367,30.16 23.898,30.953 24.012,31.879C24.07,32.379 24.062,35.773 24.039,38.734C24.129,40.02 24.344,41.098 24.633,41.879C25.043,42.992 26.063,45.121 28.027,45C29.398,44.914 30.715,44.078 31.59,42.98C32.527,41.8 32.871,40.492 33.004,39.023L33.004,34L33,34Z" style="fill:rgb(45,85,247);fill-rule:nonzero;"/>
            </g>
            <g transform="matrix(1.0907,0,0,1.0907,-2.09512,-3.26338)">
                <path d="M15.113,28.918C13.5,27.234 12.715,24.968 13.012,22.859C13.297,20.824 13.132,18.836 13.047,17.762C13.024,17.506 13.008,17.249 13,16.992C13,16.984 13.004,16.977 13.004,16.969C13.004,16.965 13,16.965 13,16.961C13.121,13.938 14.285,9.171 17.492,6.34C15.934,5.723 13.387,4.914 11,5C7.258,5.137 3.637,7.723 4,15C4.137,17.73 7.223,34.102 11.441,34C12.043,33.984 12.668,33.598 13.312,32.824C14.192,31.769 15.095,30.734 16.02,29.719C15.697,29.477 15.393,29.209 15.113,28.918Z" style="fill:rgb(45,85,247);fill-rule:nonzero;"/>
            </g>
            <g transform="matrix(1.0907,0,0,1.0907,-2.09512,-3.26338)">
                <path d="M37.023,14.73C37.039,14.887 37.023,15.016 37,15.14C37.031,16.059 36.934,16.953 36.832,17.816C36.748,18.465 36.691,19.117 36.66,19.77C36.64,20.414 36.73,21.05 36.828,21.723C37.051,23.301 37.285,25.082 36.062,27.16C36.285,27.457 36.484,27.73 36.645,27.996C41.254,20.523 43.109,11.636 41.34,9.371C38.656,5.945 34.94,4.953 32,5C31.078,5.016 30.242,5.14 29.527,5.293C34.602,7.753 36.863,13.027 37.023,14.73Z" style="fill:rgb(45,85,247);fill-rule:nonzero;"/>
            </g>
            <g transform="matrix(1.0907,0,0,1.0907,-2.09512,-3.26338)">
                <path d="M41,30.07C38.336,30.621 37.055,30.328 36.43,29.945C36.332,30.015 36.23,30.078 36.137,30.137C35.766,30.359 35.176,30.719 35.031,32.918C35.117,32.934 35.188,32.941 35.277,32.961L35.715,33C37.035,33.059 38.762,32.691 39.777,32.219C41.961,31.203 43.152,29.629 41,30.07Z" style="fill:rgb(45,85,247);fill-rule:nonzero;"/>
            </g>
            <g transform="matrix(1.0907,0,0,1.0907,-2.09512,-3.26338)">
                <path d="M22.023,32.117C21.984,31.82 21.824,31.578 21.531,31.387L21.421,31.34C21.063,31.18 20.652,31 20,31L19.996,31C19.867,31.012 19.742,31.02 19.617,31.02C19.562,31.02 19.512,31.012 19.461,31.012C18.988,31.375 18.313,31.656 16.645,32C13.665,32.758 15.425,33.656 16.566,33.793C17.672,34.07 20.301,34.406 22.046,32.984C22.048,32.695 22.04,32.406 22.023,32.117Z" style="fill:rgb(45,85,247);fill-rule:nonzero;"/>
            </g>
            <g transform="matrix(1.0907,0,0,1.0907,-2.09512,-3.26338)">
                <path d="M20.68,18.5C20.39,18.805 19.93,19.066 19.418,18.984C18.59,18.852 17.957,17.852 18.004,17.477C18.047,17.102 18.754,16.907 19.578,17.043C19.868,17.09 20.128,17.172 20.348,17.27C20.028,16.582 19.449,16.184 18.566,16.09C17,15.914 15.34,16.73 15.008,17.184C15.012,17.297 15.028,17.437 15.039,17.602C15.133,18.75 15.305,20.887 14.989,23.141C14.781,24.625 15.383,26.309 16.555,27.535C17.313,28.325 18.195,28.825 19.07,28.973C19.18,28.493 19.379,28.027 19.582,27.547C19.695,27.281 19.816,27 19.93,26.695L20.09,26.27C20.531,25.113 20.988,23.918 21,21.566C21.004,20.66 20.89,19.629 20.68,18.5Z" style="fill:rgb(45,85,247);fill-rule:nonzero;"/>
            </g>
            <g transform="matrix(1.0907,0,0,1.0907,-2.09512,-3.26338)">
                <path d="M34.848,22.008C34.742,21.278 34.637,20.523 34.66,19.703C34.684,18.961 34.766,18.262 34.848,17.586C34.906,17.051 34.957,16.539 34.984,16.036C33.695,16.141 32.84,16.516 32.434,17.145C32.617,17.08 32.807,17.037 33,17.015C33.895,16.898 34.543,17.156 34.617,17.652C34.676,18.016 34.367,18.355 34.23,18.488C33.953,18.758 33.605,18.93 33.25,18.977C32.848,19.021 32.443,18.918 32.11,18.687C32.223,20.66 33.676,23.301 34.39,24.594C34.547,24.871 34.664,25.094 34.762,25.281C35.152,24.164 35.008,23.145 34.848,22.008Z" style="fill:rgb(45,85,247);fill-rule:nonzero;"/>
            </g>
        </g>
    </g>
</svg>
