<?xml version="1.0" encoding="UTF-8" standalone="no"?><!DOCTYPE svg PUBLIC "-//W3C//DTD SVG 1.1//EN" "http://www.w3.org/Graphics/SVG/1.1/DTD/svg11.dtd"><svg width="100%" height="100%" viewBox="0 0 1867 2134" version="1.1" xmlns="http://www.w3.org/2000/svg" xmlns:xlink="http://www.w3.org/1999/xlink" xml:space="preserve" xmlns:serif="http://www.serif.com/" style="fill-rule:evenodd;clip-rule:evenodd;stroke-linecap:round;stroke-linejoin:round;stroke-miterlimit:1.5;"><g><path d="M1583.65,943.335l-809.647,631.544l57.199,73.33l809.647,-631.544l-57.199,-73.33Z" style="fill:none;stroke:#2d56f7;stroke-width:50px;"/><path d="M140,424.646l374.823,1l1,-333.646" style="fill:none;stroke:#2d56f7;stroke-width:70px;"/><path d="M378,720l792,0" style="fill:none;stroke:#2d56f7;stroke-width:70px;"/><path d="M378,850l792,0" style="fill:none;stroke:#2d56f7;stroke-width:70px;"/><path d="M378,980l792,0" style="fill:none;stroke:#2d56f7;stroke-width:70px;"/><path d="M378,1100l792,0" style="fill:none;stroke:#2d56f7;stroke-width:70px;"/><path d="M378,1100l792,0" style="fill:none;stroke:#2d56f7;stroke-width:70px;"/><path d="M378,1729l180,0" style="fill:none;stroke:#2d56f7;stroke-width:70px;"/><path d="M1685.65,863.773l-102,79.562l57.199,73.33l102,-79.562l-57.199,-73.33Z" style="fill:none;stroke:#2d56f7;stroke-width:50px;"/><path d="M774,1575l-121,154l177,-80.791" style="fill:none;stroke:#2d56f7;stroke-width:50px;stroke-linecap:butt;"/><path d="M1408,1083l0,-991l-892.177,-0l-375.823,332.646l0,1617.35l1268,0l0,-846" style="fill:none;stroke:#2d56f7;stroke-width:70px;stroke-linecap:butt;"/></g></svg>